<?xml version="1.0" encoding="UTF-8"?>
<svg width="13px" height="11px" viewBox="0 0 13 20" version="1.1" xmlns="http://www.w3.org/2000/svg" xmlns:xlink="http://www.w3.org/1999/xlink">
    <!-- Generator: Sketch 49.3 (51167) - http://www.bohemiancoding.com/sketch -->
    <title>?</title>
    <desc>Created with Sketch.</desc>
    <defs></defs>
    <g id="V2" stroke="none" stroke-width="1" fill="none" fill-rule="evenodd">
        <g id="Translate" transform="translate(-531.000000, -15.000000)" fill="#000000">
            <g id="Head" transform="translate(531.000000, 14.000000)">
                <path d="M5.19802122,17.9570643 L8.25966362,17.9570643 L8.25966362,20.994 L5.19802122,20.994 L5.19802122,17.9570643 Z M0.702095903,7.56034747 C0.683707568,6.63011026 0.817020994,5.76372585 1.10204018,4.96116826 C1.38705937,4.15861067 1.79619367,3.46094323 2.32945537,2.86814501 C2.86271708,2.27534679 3.51549316,1.81479508 4.28780321,1.48647606 C5.06011327,1.15815705 5.92435203,0.994 6.88054542,0.994 C7.74479715,0.994 8.53088666,1.11711778 9.23883754,1.36335705 C9.94678842,1.60959631 10.5581914,1.9652699 11.0730647,2.43038851 C11.5879381,2.89550711 11.9878784,3.46549685 12.2728976,4.14037483 C12.5579168,4.8152528 12.7004242,5.59043885 12.7004242,6.46595622 C12.7004242,7.03139453 12.631469,7.53754542 12.4935565,7.98442408 C12.355644,8.43130274 12.1763604,8.83713543 11.9557004,9.20193434 C11.7350404,9.56673324 11.4822046,9.90416717 11.1971854,10.2142462 C10.9121662,10.5243253 10.6225543,10.8252799 10.3283409,11.117119 C10.0341276,11.3907182 9.74451564,11.6688732 9.45949645,11.9515923 C9.17447727,12.2343115 8.91704444,12.5352661 8.68719026,12.8544651 C8.45733608,13.1736642 8.27345549,13.5202179 8.13554298,13.8941368 C7.99763047,14.2680557 7.92867525,14.692128 7.92867525,15.1663666 L7.92867525,16.2333981 L5.58417432,16.2333981 L5.58417432,14.9474884 C5.62095099,14.1814107 5.76345844,13.5293424 6.01170096,12.991264 C6.25994348,12.4531856 6.56334645,11.9743943 6.92191897,11.5548755 C7.28049149,11.1353568 7.6574467,10.7477637 8.05279589,10.3920848 C8.44814508,10.0364059 8.81590626,9.66249261 9.15609045,9.27033379 C9.49627464,8.87817497 9.7674985,8.44498276 9.96977018,7.97074419 C10.1720419,7.49650561 10.2547881,6.92195595 10.2180115,6.24707798 C10.1444581,5.24388098 9.81807008,4.4595751 9.23883754,3.8941368 C8.659605,3.3286985 7.87351549,3.04598358 6.88054542,3.04598358 C6.21856538,3.04598358 5.64853556,3.16454145 5.17043886,3.40166074 C4.69234216,3.63878003 4.29240188,3.95797428 3.97060603,4.35925308 C3.64881017,4.76053187 3.41436243,5.23476334 3.26725575,5.7819617 C3.12014907,6.32916005 3.04659684,6.92194938 3.04659684,7.56034747 L0.702095903,7.56034747 Z" id="?"></path>
            </g>
        </g>
    </g>
</svg>
