<?xml version="1.0" encoding="UTF-8"?>
<svg width="18px" height="11px" viewBox="0 0 18 18" version="1.1" xmlns="http://www.w3.org/2000/svg" xmlns:xlink="http://www.w3.org/1999/xlink">
    <!-- Generator: Sketch 49.3 (51167) - http://www.bohemiancoding.com/sketch -->
    <title>themes</title>
    <desc>Created with Sketch.</desc>
    <defs></defs>
    <g id="V2" stroke="none" stroke-width="1" fill="none" fill-rule="evenodd">
        <g id="Translate" transform="translate(-473.000000, -19.000000)" fill="#000000" fill-rule="nonzero">
            <g id="themes" transform="translate(473.000000, 19.000000)">
                <path d="M9,0 C4.03,0 0,4.03 0,9 C0,13.97 4.03,18 9,18 C9.83,18 10.5,17.33 10.5,16.5 C10.5,16.11 10.35,15.76 10.11,15.49 C9.88,15.23 9.73,14.88 9.73,14.5 C9.73,13.67 10.4,13 11.23,13 L13,13 C15.76,13 18,10.76 18,8 C18,3.58 13.97,0 9,0 Z M3.5,9 C2.67,9 2,8.33 2,7.5 C2,6.67 2.67,6 3.5,6 C4.33,6 5,6.67 5,7.5 C5,8.33 4.33,9 3.5,9 Z M6.5,5 C5.67,5 5,4.33 5,3.5 C5,2.67 5.67,2 6.5,2 C7.33,2 8,2.67 8,3.5 C8,4.33 7.33,5 6.5,5 Z M11.5,5 C10.67,5 10,4.33 10,3.5 C10,2.67 10.67,2 11.5,2 C12.33,2 13,2.67 13,3.5 C13,4.33 12.33,5 11.5,5 Z M14.5,9 C13.67,9 13,8.33 13,7.5 C13,6.67 13.67,6 14.5,6 C15.33,6 16,6.67 16,7.5 C16,8.33 15.33,9 14.5,9 Z" id="Shape"></path>
            </g>
        </g>
    </g>
</svg>
