<?xml version="1.0" encoding="UTF-8"?>
<svg width="13px" height="18px" viewBox="0 0 13 18" version="1.1" xmlns="http://www.w3.org/2000/svg" xmlns:xlink="http://www.w3.org/1999/xlink">
    <!-- Generator: Sketch 49.3 (51167) - http://www.bohemiancoding.com/sketch -->
    <title>copy</title>
    <desc>Created with Sketch.</desc>
    <defs></defs>
    <g id="V2" stroke="none" stroke-width="1" fill="none" fill-rule="evenodd">
        <g id="Save" transform="translate(-676.000000, -338.000000)" fill="#FFFFFF">
            <g id="Group-3" transform="translate(395.000000, 0.000000)">
                <g id="copy" transform="translate(281.000000, 338.000000)">
                    <path d="M3,1 L3,4 L10,4 L10,1 L13,1 L13,18 L0,18 L0,1 L3,1 Z M2,6 L2,7 L11,7 L11,6 L2,6 Z M2,10 L2,11 L11,11 L11,10 L2,10 Z M2,14 L2,15 L11,15 L11,14 L2,14 Z" id="Combined-Shape"></path>
                    <rect id="Rectangle-3-Copy-2" x="4" y="0" width="5" height="3"></rect>
                </g>
            </g>
        </g>
    </g>
</svg>