<?xml version="1.0" encoding="UTF-8"?>
<svg width="13px" height="20px" viewBox="0 0 13 20" version="1.1" xmlns="http://www.w3.org/2000/svg" xmlns:xlink="http://www.w3.org/1999/xlink">
    <!-- Generator: Sketch 49.3 (51167) - http://www.bohemiancoding.com/sketch -->
    <title>template</title>
    <desc>Created with Sketch.</desc>
    <defs></defs>
    <g id="V2" stroke="none" stroke-width="1" fill="none" fill-rule="evenodd">
        <g id="Run" transform="translate(-572.000000, -15.000000)" fill="#FFFFFF">
            <path d="M582.499546,30.276257 L583.273906,33.0234278 L582.117415,34.9359313 L581.118147,31.0519859 C580.340922,31.3625374 579.485776,31.5178132 578.552708,31.5178132 C577.631732,31.5178132 576.783137,31.366536 576.006922,31.0639817 L574.964669,35 L573.7893,33.0013714 L574.542337,30.2507335 C573.535921,29.5015184 572.688475,28.4200492 572,27.0063258 L573.279087,26.0756491 C573.752507,27.1180541 574.327786,27.9465179 575.004921,28.5610404 L576.487694,23.144876 C575.695738,22.543082 575.185161,21.5961909 575.185161,20.5311958 C575.185161,18.985247 576.261023,17.6881606 577.711687,17.3342498 L577.711687,15 L579.440363,15 L579.440363,17.3696211 C580.823315,17.76831 581.833915,19.0328697 581.833915,20.5311958 C581.833915,21.5547651 581.362285,22.4692396 580.622506,23.0730979 L581.852605,27.8853275 L580.501191,28.8385858 L579.170946,23.7584098 C578.957194,23.801146 578.73601,23.8235743 578.509538,23.8235743 C578.314322,23.8235743 578.123036,23.8069097 577.937052,23.7749385 L576.427211,29.4767774 C577.070941,29.74886 577.77944,29.8849014 578.552708,29.8849014 C580.91511,29.8849014 582.642158,28.6151506 583.733852,26.0756491 L585,27.0063258 C584.337077,28.4361846 583.503592,29.5261616 582.499546,30.276257 Z M578.509538,22.3749277 C579.537699,22.3749277 580.371189,21.5494608 580.371189,20.5311958 C580.371189,19.5129308 579.537699,18.6874639 578.509538,18.6874639 C577.481376,18.6874639 576.647887,19.5129308 576.647887,20.5311958 C576.647887,21.5494608 577.481376,22.3749277 578.509538,22.3749277 Z" id="template"></path>
        </g>
    </g>
</svg>